<svg width="25" height="25" viewBox="0 0 25 25" fill="none" xmlns="http://www.w3.org/2000/svg">
<g id="Frame">
<rect width="25" height="25" fill="white"/>
<path id="Vector" fill-rule="evenodd" clip-rule="evenodd" d="M2.08301 6.68944C2.08301 5.39503 3.13234 4.3457 4.42676 4.3457H20.5726C21.867 4.3457 22.9163 5.39503 22.9163 6.68945V14.4043C22.9163 15.6987 21.867 16.748 20.5726 16.748H13.2809V19.0918H15.6247C16.0561 19.0918 16.4059 19.4416 16.4059 19.873C16.4059 20.3045 16.0561 20.6543 15.6247 20.6543H9.37471C8.94324 20.6543 8.59346 20.3045 8.59346 19.873C8.59346 19.4416 8.94324 19.0918 9.37471 19.0918H11.7184V16.748H4.42676C3.13234 16.748 2.08301 15.6987 2.08301 14.4043V6.68944ZM4.42676 5.9082C3.99529 5.9082 3.64551 6.25797 3.64551 6.68944V14.4043C3.64551 14.8357 3.99529 15.1855 4.42676 15.1855H20.5726C21.0041 15.1855 21.3538 14.8357 21.3538 14.4043V6.68945C21.3538 6.25797 21.0041 5.9082 20.5726 5.9082H4.42676Z" fill="#323544"/>
</g>
</svg>
