<svg width="32" height="32" viewBox="0 0 32 32" fill="none" xmlns="http://www.w3.org/2000/svg">
<g id="LinkedIn">
<path id="Vector" fill-rule="evenodd" clip-rule="evenodd" d="M6.66667 4.00024H25.3333C26.8061 4.00024 28 5.19415 28 6.66691V25.3336C28 26.8064 26.8061 28.0002 25.3333 28.0002H6.66667C5.19391 28.0002 4 26.8064 4 25.3336V6.66691C4 5.19415 5.19391 4.00024 6.66667 4.00024ZM10.6667 24.0002C11.0349 24.0002 11.3333 23.7017 11.3333 23.3336V14.0002C11.3333 13.6321 11.0349 13.3336 10.6667 13.3336H8.66667C8.29848 13.3336 8 13.6321 8 14.0002V23.3336C8 23.7017 8.29848 24.0002 8.66667 24.0002H10.6667ZM9.66667 12.0002C8.56209 12.0002 7.66667 11.1048 7.66667 10.0002C7.66667 8.89567 8.56209 8.00024 9.66667 8.00024C10.7712 8.00024 11.6667 8.89567 11.6667 10.0002C11.6667 11.1048 10.7712 12.0002 9.66667 12.0002ZM23.3333 24.0002C23.7015 24.0002 24 23.7017 24 23.3336V17.2002C24.0433 15.0813 22.4768 13.2729 20.3733 13.0136C18.9027 12.8792 17.4777 13.5661 16.6667 14.8002V14.0002C16.6667 13.6321 16.3681 13.3336 16 13.3336H14C13.6319 13.3336 13.3333 13.6321 13.3333 14.0002V23.3336C13.3333 23.7017 13.6319 24.0002 14 24.0002H16C16.3681 24.0002 16.6667 23.7017 16.6667 23.3336V18.3336C16.6667 17.229 17.5621 16.3336 18.6667 16.3336C19.7712 16.3336 20.6667 17.229 20.6667 18.3336V23.3336C20.6667 23.7017 20.9652 24.0002 21.3333 24.0002H23.3333Z" fill="black"/>
</g>
</svg>
