<svg width="32" height="32" viewBox="0 0 32 32" fill="none" xmlns="http://www.w3.org/2000/svg">
<g id="Twitter">
<path id="Vector" d="M27.9639 8.95678C27.3447 9.78281 26.5962 10.5034 25.7472 11.0906C25.7472 11.3064 25.7472 11.5221 25.7472 11.7499C25.754 15.6684 24.1888 19.4257 21.4026 22.1796C18.6162 24.9334 14.8418 26.4534 10.9256 26.3988C8.66149 26.4064 6.42639 25.8894 4.39539 24.8884C4.28587 24.8405 4.21525 24.7322 4.21566 24.6126V24.4808C4.21566 24.3086 4.35514 24.1692 4.52719 24.1692C6.75273 24.0957 8.89886 23.3241 10.662 21.9634C8.64754 21.9228 6.83509 20.7294 6.00097 18.8945C5.95885 18.7944 5.97195 18.6793 6.03559 18.5912C6.09922 18.503 6.20417 18.4545 6.3125 18.463C6.92473 18.5245 7.54307 18.4676 8.13377 18.2952C5.91002 17.8336 4.23911 15.9874 3.99998 13.7278C3.99149 13.6194 4.04006 13.5145 4.12817 13.4508C4.21626 13.3872 4.33115 13.374 4.43134 13.4162C5.02809 13.6796 5.67229 13.8182 6.32449 13.8237C4.37595 12.5449 3.53431 10.1123 4.27557 7.90187C4.35209 7.68709 4.53591 7.52841 4.7595 7.48417C4.98307 7.43991 5.21345 7.51662 5.36593 7.6861C7.99535 10.4846 11.6082 12.1522 15.4427 12.3373C15.3446 11.9454 15.2963 11.5426 15.299 11.1385C15.3348 9.01987 16.6458 7.13253 18.618 6.36007C20.5902 5.58763 22.8334 6.08295 24.2975 7.61417C25.2954 7.42405 26.2602 7.08885 27.1611 6.61919C27.2271 6.57799 27.3108 6.57799 27.3768 6.61919C27.418 6.68522 27.418 6.76894 27.3768 6.83497C26.9404 7.83427 26.2032 8.67241 25.268 9.2325C26.087 9.13753 26.8915 8.94434 27.6644 8.6571C27.7295 8.61281 27.815 8.61281 27.88 8.6571C27.9346 8.68203 27.9754 8.72973 27.9915 8.78747C28.0076 8.84522 27.9975 8.90715 27.9639 8.95678Z" fill="black"/>
</g>
</svg>
