<svg width="26" height="26" viewBox="0 0 26 26" fill="none" xmlns="http://www.w3.org/2000/svg">
<path id="Vector" d="M11.1196 25.9746L8.68776 25.0757C8.43262 24.9843 8.2891 24.6441 8.36086 24.319L13.8025 0.439941C13.8743 0.114918 14.1414 -0.0679084 14.3965 0.0235046L16.8284 0.922399C17.0835 1.01381 17.227 1.35407 17.1553 1.67909L11.7136 25.5582C11.6378 25.8832 11.3747 26.0711 11.1196 25.9746ZM6.57487 20.2766L8.30904 17.9201C8.49242 17.6713 8.48046 17.2752 8.27714 17.0466L4.6653 12.9991L8.27714 8.9515C8.48046 8.72297 8.49641 8.32685 8.30904 8.078L6.57487 5.72158C6.39548 5.47781 6.0925 5.46257 5.89715 5.69619L0.152487 12.5522C-0.0508289 12.7908 -0.0508289 13.2022 0.152487 13.4409L5.89715 20.3019C6.0925 20.5356 6.39548 20.5254 6.57487 20.2766ZM19.619 20.307L25.3636 13.446C25.567 13.2073 25.567 12.7959 25.3636 12.5572L19.619 5.69111C19.4276 5.46257 19.1246 5.47273 18.9413 5.7165L17.2071 8.07292C17.0237 8.32177 17.0357 8.71789 17.239 8.94642L20.8508 12.9991L17.239 17.0466C17.0357 17.2752 17.0197 17.6713 17.2071 17.9201L18.9413 20.2766C19.1206 20.5254 19.4236 20.5356 19.619 20.307Z" fill="white"/>
</svg>
