<svg width="50" height="50" viewBox="0 0 50 50" fill="none" xmlns="http://www.w3.org/2000/svg">
<g id="brush-2">
<path id="Vector" d="M38.6432 8.01097C40.378 6.6173 43.0519 6.67087 44.713 8.13256C46.374 9.59425 46.4349 11.9471 44.8511 13.4738L27.7067 30C27.3779 28.3652 26.5255 26.7883 25.0766 25.5133C23.7104 24.3111 21.9346 23.4125 20 22.987L38.6432 8.01097Z" fill="white"/>
<path id="Vector_2" d="M18.1557 26.2888L18.1538 26.2905C15.6819 26.1336 13.1085 27.1425 11.3743 29.8203C11.3477 29.8613 11.3231 29.9034 11.3005 29.9467C9.83031 32.764 8.24779 34.3163 7.10201 35.1534C6.52581 35.5744 6.05039 35.8215 5.74059 35.9584C5.58549 36.0271 5.4714 36.0682 5.40653 36.0898C5.37407 36.1005 5.3539 36.1063 5.34709 36.1084C4.77231 36.2534 4.32835 36.7115 4.20243 37.2921C4.07501 37.8794 4.29726 38.489 4.77181 38.858L4.77375 38.8594L4.77927 38.8638L4.79666 38.8771L4.8565 38.9225C4.90731 38.9607 4.97979 39.0146 5.0724 39.0819C5.25746 39.2165 5.52351 39.4046 5.85801 39.628C6.52552 40.0738 7.4737 40.6646 8.60182 41.2484C10.8114 42.3915 13.9118 43.6132 17.0098 43.4619C19.084 43.3607 21.1693 42.6405 22.9131 40.8967C24.1695 39.6403 25.0375 38.1328 25.4781 36.5636C25.6694 35.8821 25.78 35.1888 25.8071 34.4986C25.8158 34.2744 25.8162 34.05 25.8073 33.8271C25.7335 31.983 25.0435 30.185 23.6674 28.809C22.4195 27.5613 20.7339 26.6713 18.9375 26.3775C18.6788 26.3353 18.4178 26.3055 18.1557 26.2888Z" fill="white"/>
</g>
</svg>
