<svg width="25" height="24" viewBox="0 0 25 24" fill="none" xmlns="http://www.w3.org/2000/svg">
<path id="Vector" d="M24.2188 19.9046H3.125V0.995232C3.125 0.445366 2.77539 0 2.34375 0H0.78125C0.349609 0 0 0.445366 0 0.995232V21.8951C0 22.9942 0.699707 23.8856 1.5625 23.8856H24.2188C24.6504 23.8856 25 23.4402 25 22.8903V20.8999C25 20.35 24.6504 19.9046 24.2188 19.9046ZM22.6562 1.99046H16.8916C15.8477 1.99046 15.3247 3.59839 16.063 4.53888L17.645 6.55422L14.0625 11.1186L10.48 6.55485C9.86963 5.77732 8.88037 5.77732 8.27051 6.55485L4.9165 10.8275C4.61133 11.2163 4.61133 11.8464 4.9165 12.2351L6.021 13.6421C6.32617 14.0309 6.8208 14.0309 7.12598 13.6421L9.375 10.7765L12.9575 15.3403C13.5679 16.1178 14.5571 16.1178 15.167 15.3403L19.8545 9.36887L21.4365 11.3842C22.1748 12.3247 23.437 11.6585 23.437 10.3286V2.9857C23.4375 2.43583 23.0879 1.99046 22.6562 1.99046Z" fill="white"/>
</svg>
